<svg xmlns="http://www.w3.org/2000/svg" viewBox="0 0 24 24"><defs><style>.cls-1{fill:none;stroke:#000;stroke-linecap:round;stroke-linejoin:round;stroke-width:0.9px;}</style></defs><g id="Capa_1" data-name="Capa 1"><polyline class="cls-1" points="6.69 7.87 4.34 7.87 4.15 11.77 3.36 16.05 3.36 20.69 20.15 20.69 20.15 16.05 19.36 11.77 19.16 7.87 11.75 7.87 11.21 7.87"/><line class="cls-1" x1="3.36" y1="16.05" x2="20.15" y2="16.05"/><line class="cls-1" x1="14.88" y1="7.86" x2="14.88" y2="6.42"/><line class="cls-1" x1="16.22" y1="7.86" x2="16.22" y2="6.42"/><rect class="cls-1" x="12.59" y="3.7" width="5.91" height="2.72"/><line class="cls-1" x1="5.76" y1="13.46" x2="12.13" y2="13.46"/><path class="cls-1" d="M6.69,13.42V6.79a.49.49,0,0,1,.58-.48L9,6.67l1.67-.36a.49.49,0,0,1,.59.48v6.68"/><path class="cls-1" d="M9.57,17.73c0,.86,4.54.86,4.54,0"/><rect class="cls-1" x="13.13" y="9.12" width="4.61" height="1.53"/></g><g id="Capa_2" data-name="Capa 2"><circle cx="13.98" cy="12.11" r="0.32"/><circle cx="15.57" cy="12.11" r="0.32"/><circle cx="17.16" cy="12.11" r="0.32"/><circle cx="13.98" cy="13.42" r="0.32"/><circle cx="15.57" cy="13.42" r="0.32"/><circle cx="17.16" cy="13.42" r="0.32"/><circle cx="13.98" cy="14.74" r="0.32"/><circle cx="15.57" cy="14.74" r="0.32"/><circle cx="17.16" cy="14.74" r="0.32"/></g></svg>