<svg id="Capa_1" data-name="Capa 1" xmlns="http://www.w3.org/2000/svg" viewBox="0 0 24 24"><defs><style>.cls-1{fill:none;stroke:#000;stroke-linecap:round;stroke-linejoin:round;stroke-width:0.9px;}</style></defs><circle class="cls-1" cx="12" cy="13.75" r="2.23"/><path class="cls-1" d="M8.48,19.5a3.52,3.52,0,0,1,7,0Z"/><circle class="cls-1" cx="6.32" cy="16.21" r="1.27"/><path class="cls-1" d="M4.3,19.5a2,2,0,1,1,4,0Z"/><circle class="cls-1" cx="17.68" cy="16.21" r="1.27"/><path class="cls-1" d="M15.67,19.5a2,2,0,1,1,4,0Z"/><polygon class="cls-1" points="12 4.5 12.88 6.28 14.84 6.56 13.42 7.95 13.76 9.9 12 8.98 10.24 9.9 10.58 7.95 9.16 6.56 11.12 6.28 12 4.5"/><polygon class="cls-1" points="6.32 8.66 6.93 9.9 8.3 10.1 7.31 11.07 7.54 12.44 6.32 11.79 5.09 12.44 5.33 11.07 4.34 10.1 5.71 9.9 6.32 8.66"/><polygon class="cls-1" points="17.7 8.66 18.31 9.9 19.68 10.1 18.69 11.07 18.92 12.44 17.7 11.79 16.47 12.44 16.7 11.07 15.71 10.1 17.08 9.9 17.7 8.66"/></svg>