<svg xmlns="http://www.w3.org/2000/svg" viewBox="0 0 24 24"><defs><style>.cls-1{fill:none;stroke-linecap:round;stroke-linejoin:round;stroke-width:0.9px;}.cls-1,.cls-2{stroke:#000;}.cls-2{stroke-miterlimit:10;stroke-width:0.2px;}</style></defs><g id="Capa_1" data-name="Capa 1"><polyline class="cls-1" points="14.23 18.22 2.39 18.22 2.39 5.31 18.96 5.31 18.96 12.27"/><polyline class="cls-1" points="8.71 5.31 8.71 12.7 10.68 11.76"/><polyline class="cls-1" points="12.64 5.31 12.64 12.7 10.68 11.76"/><path class="cls-1" d="M21.9,16.14a4,4,0,1,1-2.23-3.45"/></g><g id="Capa_2" data-name="Capa 2"><path class="cls-2" d="M16.11,15.29H16a.41.41,0,0,0-.3.28.42.42,0,0,0,.13.42l1.81,1.81c.12.13.16.13.28,0l3.56-3.55L21.8,14a.4.4,0,0,0-.19-.66.4.4,0,0,0-.43.13L18.12,16.5a.38.38,0,0,1-.61,0c-.36-.35-.72-.71-1.07-1.07A.47.47,0,0,0,16.11,15.29Z"/></g></svg>