<svg xmlns="http://www.w3.org/2000/svg" viewBox="0 0 24 24"><defs><style>.cls-1{stroke:#000;stroke-miterlimit:10;stroke-width:0.2px;}</style></defs><g id="Capa_2" data-name="Capa 2"><path class="cls-1" d="M10.1,11.78H10a.28.28,0,0,0-.21.2.31.31,0,0,0,.09.3l1.28,1.27c.08.09.11.09.2,0l2.5-2.5.2-.21a.28.28,0,0,0-.13-.46.27.27,0,0,0-.3.09l-2.16,2.15a.27.27,0,0,1-.43,0l-.75-.75A.31.31,0,0,0,10.1,11.78Z"/><path class="cls-1" d="M19.5,11.48v-.42a.81.81,0,0,0-.88-.88h-.78c-.12-.29-.23-.59-.35-.9l-.06-.15L17.57,9l.4-.4a.8.8,0,0,0,0-1.23L16.62,6a.8.8,0,0,0-1.21,0c-.18.17-.37.35-.54.54l0,0h0c-.29-.13-.6-.26-.92-.38l-.06,0v0c0-.22,0-.46,0-.78A.81.81,0,0,0,13,4.5H11a.8.8,0,0,0-.8.86c0,.26,0,.52,0,.79l0,0-1,.4C9,6.39,8.78,6.2,8.59,6A.8.8,0,0,0,7.38,6L6,7.38A.81.81,0,0,0,6,8.59l.56.59c-.14.32-.28.65-.41,1,0,0,0,0,0,0H5.37A.8.8,0,0,0,4.5,11v1.9a.81.81,0,0,0,.88.88h.78l0,0c.11.3.24.61.4,1l-.41.4-.12.13a.81.81,0,0,0,0,1.27l1.28,1.29a.94.94,0,0,0,.65.32H8a.94.94,0,0,0,.65-.32l.41-.4.1-.11.17.07c.3.11.59.23.86.35,0,.14,0,.28,0,.42a2.41,2.41,0,0,0,0,.38.8.8,0,0,0,.85.85H13a.81.81,0,0,0,.86-.86c0-.26,0-.52,0-.8,0,0,0,0,0,0l1-.4s0,0,0,0c.17.19.36.37.54.55a.81.81,0,0,0,1.22,0L18,16.63a.82.82,0,0,0,0-1.23l-.05,0-.5-.5,0,0a.11.11,0,0,0,0,0c.13-.3.27-.62.39-.94v0h.84a.79.79,0,0,0,.82-.76c0-.18,0-.36,0-.54v-1ZM13,5.2c.13,0,.16,0,.16.18v.8a.61.61,0,0,0,.45.64c.34.13.66.26,1,.4a.61.61,0,0,0,.78-.14l.25-.24.32-.33c.11-.1.14-.1.24,0l1.35,1.35c.11.11.11.14,0,.25l-.3.3-.27.27a.61.61,0,0,0-.12.78c.13.31.27.63.39.95a.6.6,0,0,0,.64.46h.81c.14,0,.17,0,.17.18v.16a1.28,1.28,0,0,0,0,.19h0v1.32h0v.22c0,.16,0,.19-.19.19H17.8a.59.59,0,0,0-.61.44c-.14.36-.28.68-.41,1a.6.6,0,0,0,.12.76l.28.28.3.3c.11.11.11.14,0,.25l-1.34,1.34c-.11.11-.14.11-.26,0l-.24-.24-.34-.34a.59.59,0,0,0-.73-.13c-.33.15-.67.29-1,.42a.59.59,0,0,0-.44.61v.81c0,.17,0,.2-.2.2H11.07c-.18,0-.2,0-.2-.21v-.8a.59.59,0,0,0-.44-.61c-.34-.13-.67-.27-1-.41a.59.59,0,0,0-.75.13l-.28.27-.3.31c-.11.1-.14.1-.25,0L6.52,16.14c-.11-.1-.12-.13,0-.26l.24-.23.34-.35a.6.6,0,0,0,.13-.73c-.15-.34-.29-.68-.43-1a.57.57,0,0,0-.59-.42H5.39c-.17,0-.2,0-.2-.2V11.07c0-.18,0-.2.21-.2h.79a.59.59,0,0,0,.62-.44c.13-.34.27-.67.41-1a.61.61,0,0,0-.13-.76L6.8,8.4a4,4,0,0,0-.29-.29c-.1-.11-.1-.14,0-.25L7.86,6.52c.1-.11.13-.12.26,0l.25.26.32.31a.58.58,0,0,0,.75.13l1-.4a.61.61,0,0,0,.45-.64V5.36c0-.13,0-.16.17-.16H13Z"/><path class="cls-1" d="M7.36,12A4.64,4.64,0,1,0,12,7.36,4.64,4.64,0,0,0,7.36,12ZM12,8.14A3.86,3.86,0,1,1,8.14,12,3.86,3.86,0,0,1,12,8.14Z"/></g></svg>