<svg id="Capa_1" data-name="Capa 1" xmlns="http://www.w3.org/2000/svg" viewBox="0 0 24 24"><defs><style>.cls-1{fill:none;stroke:#000;stroke-linecap:round;stroke-linejoin:round;stroke-width:0.9px;}</style></defs><path class="cls-1" d="M20.18,14.86a5.58,5.58,0,1,1-5.57-5.58A5.57,5.57,0,0,1,20.18,14.86Z"/><path class="cls-1" d="M13.19,16.28a1.41,1.41,0,1,0,2.47-.92c-.48-.51-1.15-.37-1.73-.67a1.45,1.45,0,0,1-.74-1.26,1.42,1.42,0,0,1,2.84,0"/><line class="cls-1" x1="14.61" y1="10.97" x2="14.61" y2="18.74"/><polyline class="cls-1" points="10.18 18.28 4.45 18.28 4.45 5.43 14.62 5.43 14.62 9.28"/><line class="cls-1" x1="6.13" y1="7.72" x2="12.9" y2="7.72"/><line class="cls-1" x1="6.13" y1="9.53" x2="10.03" y2="9.53"/><line class="cls-1" x1="6.13" y1="11.34" x2="8.35" y2="11.34"/></svg>