<svg xmlns="http://www.w3.org/2000/svg" viewBox="0 0 24 24"><defs><style>.cls-1{fill:none;stroke-linecap:round;stroke-linejoin:round;stroke-width:0.9px;}.cls-1,.cls-2{stroke:#000;}.cls-2{stroke-miterlimit:10;stroke-width:0.3px;}</style></defs><g id="Capa_1" data-name="Capa 1"><circle class="cls-1" cx="6.6" cy="5.73" r="1.23"/><path class="cls-1" d="M4.65,8.91a2,2,0,0,1,3.9,0Z"/><circle class="cls-1" cx="10.77" cy="5.73" r="1.23"/><path class="cls-1" d="M8.82,8.91a2,2,0,0,1,3.9,0Z"/><circle class="cls-1" cx="14.94" cy="5.73" r="1.23"/><path class="cls-1" d="M13,8.91a1.95,1.95,0,1,1,3.89,0Z"/></g><g id="Capa_2" data-name="Capa 2"><path class="cls-2" d="M16.47,12.13l1.42-1.48c.19-.2.38-.39.58-.57a1.39,1.39,0,0,1,1.45-.27,1.35,1.35,0,0,1,1,1,1.22,1.22,0,0,1-.34,1.07c-.7.84-1.41,1.67-2.11,2.5-.21.25-.43.49-.63.74a2.47,2.47,0,0,1-1.93.94c-.71,0-1.42,0-2.14,0l-2.87,0c-.29,0-.58.05-.91.08l.18.19a.36.36,0,0,1,0,.54L7.8,19.37a.35.35,0,0,1-.54,0l-4-3.84a.35.35,0,0,1,0-.56c.78-.82,1.57-1.63,2.36-2.45a.36.36,0,0,1,.56,0l.43.41,0,0c.11-.14.22-.28.34-.41a4,4,0,0,1,2.42-1.39,3.48,3.48,0,0,1,1.57.1,6.87,6.87,0,0,0,1.75.21H15.1A1.41,1.41,0,0,1,16.47,12.13ZM7.09,13.47l.16.13,1.92,1.86a.37.37,0,0,0,.34.12,15.73,15.73,0,0,1,2.37-.16c1.27,0,2.54,0,3.81,0a2,2,0,0,0,1.67-.78c.6-.76,1.25-1.49,1.87-2.22q.42-.48.81-1a.54.54,0,0,0-.17-.9.78.78,0,0,0-1,.09l-2.2,2.18a.38.38,0,0,0-.08.17,1.3,1.3,0,0,1-1.44,1.24H12.82a.34.34,0,0,1-.31-.3.33.33,0,0,1,.24-.37,1.52,1.52,0,0,1,.21,0h2.3a.59.59,0,0,0,.55-.29.68.68,0,0,0-.6-1.07c-.86,0-1.72,0-2.58,0A10.43,10.43,0,0,1,11.27,12c-.35,0-.69-.16-1-.2A3.37,3.37,0,0,0,7.09,13.47Zm2.34,3.22L5.87,13.23l-1.93,2,3.58,3.41Z"/></g></svg>