<?xml version="1.0" encoding="utf-8"?>
<!-- Generator: Adobe Illustrator 22.0.1, SVG Export Plug-In . SVG Version: 6.00 Build 0)  -->
<svg version="1.1" id="Capa_1" xmlns="http://www.w3.org/2000/svg" xmlns:xlink="http://www.w3.org/1999/xlink" x="0px" y="0px"
	 viewBox="0 0 358.6 654.4" style="enable-background:new 0 0 358.6 654.4;" xml:space="preserve">
<style type="text/css">
	.st0{fill:#7BB9D6;}
	.st1{fill:#0F1B7B;}
	.st2{fill:#ACE0EA;}
	.st3{fill:#552C8F;}
	.st4{opacity:0.3;fill:#FFFFFF;}
	.st5{fill:#FAAC78;}
	.st6{fill:#6AABC8;}
	.st7{fill:#47276B;}
	.st8{fill:#2F0B04;}
	.st9{fill:#0A286D;}
	.st10{fill:#0D3794;}
	.st11{fill:#79B8D7;}
	.st12{fill:#E9A070;}
	.st13{fill:#511307;}
	.st14{fill:#8D97C2;}
	.st15{fill:#ACDDE5;}
	.st16{fill:#6069AD;}
	.st17{fill:#591D71;}
	.st18{fill:#FFFFFF;}
	.st19{fill:#A8D770;}
	.st20{fill:#FCD450;}
	.st21{fill:none;stroke:#43449D;stroke-width:3;stroke-miterlimit:10;}
	.st22{fill:#FCAD78;}
	.st23{fill:#050A2B;}
	.st24{fill:#06142A;}
	.st25{fill:#08316F;}
	.st26{fill:#0C459C;}
	.st27{fill:#97BEDB;}
	.st28{fill:#050C18;}
	.st29{fill:#1A0764;}
	.st30{fill:#070432;}
	.st31{fill:#081B38;}
	.st32{fill:#96336E;}
	.st33{fill:#C7DEED;}
	.st34{fill:#73ABB8;}
	.st35{fill:#080F46;}
	.st36{fill:#48AEC3;}
	.st37{fill:none;stroke:#B4E2E4;stroke-width:0.75;stroke-miterlimit:10;}
	.st38{fill:none;stroke:#B4E2E4;stroke-width:0.75;stroke-miterlimit:10;stroke-dasharray:1.014,1.014;}
	.st39{fill:none;stroke:#B4E2E4;stroke-width:0.75;stroke-miterlimit:10;stroke-dasharray:1.2821,1.2821;}
	.st40{fill:none;stroke:#B4E2E4;stroke-width:0.75;stroke-miterlimit:10;stroke-dasharray:1.0053,1.0053;}
	.st41{fill:#B4E2E4;}
</style>
<g>
	<g>
		<g>
			<path class="st0" d="M148.8,481.9l-12.4,9.1c0,1.2,1,2.2,2.2,2.2h107.8c1.2,0,2.2-1,2.2-2.2l-12.4-9.1H148.8z"/>
			<g>
				<g>
					<rect x="149.2" y="479.1" class="st1" width="86.8" height="6.2"/>
					<polygon class="st2" points="149.2,479.1 160.7,471.1 224.5,471.1 236,479.1 					"/>
				</g>
				<g>
					<path class="st1" d="M302.5,441.4c0,1.7-1.4,3.1-3.1,3.1H85.7c-1.7,0-3.1-1.4-3.1-3.1v-138c0-1.7,1.4-3.1,3.1-3.1h213.8
						c1.7,0,3.1,1.4,3.1,3.1V441.4z"/>
					<g>
						<rect x="89.5" y="309.7" class="st3" width="206.2" height="125.3"/>
						<polygon class="st4" points="89.5,309.7 89.5,435.1 295.7,435.1 						"/>
					</g>
				</g>
				<path class="st1" d="M174.2,444.5v29.2c0,1.7,8.2,3,18.4,3c10.1,0,18.4-1.4,18.4-3v-29.2H174.2z"/>
			</g>
		</g>
		<path class="st0" d="M21.5,488c0,3.2,13.8,5.7,30.8,5.7s30.8-2.6,30.8-5.7c0-3.2-13.8-5.7-30.8-5.7S21.5,484.8,21.5,488z"/>
		<g>
			<g>
				<path class="st5" d="M88.2,412.2c1-1.3,0.1-1.7-0.8-2.5c-0.7-0.6-0.7-0.5-1.4-1.1c0,0,0.6,0.5,1.4,0.4c0.8-0.2,0.5-0.9,0.5-0.9
					l-2.2-0.7c-0.5-0.1-0.9-0.3-1.4-0.4c-0.5-0.1-1.3-0.1-1.8,0.2c-0.9,0.4-1.2,1.4-0.7,2.3c0.4,0.7,1.1,1.3,1.7,1.9
					C83.5,411.2,86.1,413.4,88.2,412.2z"/>
				<path class="st5" d="M83.2,406.9l-10.8-12.7c0,0-1.7-2.2-2.6-4.6l-3.1-16c0,0-0.6-6.6-3.7-5.6c0,0-4.6,1.8-2.9,9.2l4.4,14.8
					c0,0,1.2,3.1,2.8,4.7l14.6,12.8L83.2,406.9z"/>
			</g>
			<path class="st6" d="M60.5,367.9c0,0-3.6,2.5-2,8.1l2.2,8.5c0,0,8.2-0.8,9.3-4.7l-3.8-9.7C66.1,370.1,64.4,366.6,60.5,367.9z"/>
			<g>
				<path class="st7" d="M67.1,487.5c-0.2-2.5-9.3-4.5-7.9-4.1c0,0-1-0.9-2.2-0.3c0,0-0.5,0.4-0.3,1.4c0,0,0.2,0.9,0.1,1.8
					c0,0,0.2,0.2,0.7,0.2l0.7-0.9l2.4,1.5C60.5,487,64,488.9,67.1,487.5z"/>
				<path class="st5" d="M57,483.7c0,0,4.7,2.9,6.6,2.1c0,0,0.9-0.3,0-0.7c0,0-1.7-0.8-4.4-1.5L57,483.7z"/>
			</g>
			<g>
				<path class="st7" d="M38.3,489.2c1.3-2.2-5.1-8.9-4.2-7.9c0,0-0.3-1.3-1.7-1.5c0,0-0.7,0.1-1,0.9c0,0-0.4,0.9-0.9,1.5
					c0,0,0,0.3,0.5,0.6l1.1-0.4l1.1,2.6C33.2,485,35,488.6,38.3,489.2z"/>
				<path class="st5" d="M32.1,480.3c0,0,2.2,5.1,4.3,5.5c0,0,0.9,0.3,0.4-0.6c0,0-0.9-1.6-2.8-3.7L32.1,480.3z"/>
			</g>
			<path class="st8" d="M38.1,340.1c0,0.7,0,1.2,0.4,1.8c0.4,0.6,0.7,0.8,0.7,1.4c0,1.1-0.8,2.2-1,3.3c-0.4,2.5,1.3,6.2,4.5,6.7
				c3.6,0.6,5.5-1.7,6.8-4.3c1.9-3.9,0.3-8-1.1-11.8c-0.4-1.1-0.3-1.9-1.5-2.5c-1.9-1-4.2-0.2-5.9,0.7
				C39.2,336.5,38.1,338.2,38.1,340.1z"/>
			<polygon class="st9" points="64,404.6 60.5,483.7 56.5,483.7 50.8,404.6 			"/>
			<path class="st10" d="M44.4,444l-12.9,36l3.3,1.8l18-35.9l2.5-28.7l2.4-12.6h-16c0,0-1.8,4.2,0,12.9L44.4,444z"/>
			<g>
				<rect x="49.9" y="358.4" class="st5" width="5.8" height="7.8"/>
			</g>
			<path class="st5" d="M39.6,369.6c1.6-2.5,4.2-3.2,4.2-3.2l6.1-2.3h5.8l6.1,2.3c0,0,2.6,0.7,4.2,3.2H39.6z"/>
			<path class="st11" d="M64.5,406.1l-1.8-14.9l-1.1-12.5l5.6-5.8c-0.8-5.2-5.4-6.4-5.4-6.4l-4.5-1.7l-3.4,2.1l-5.5-2.2l-4.7,1.7
				c0,0-4.6,1.2-5.4,6.4c0,0,3.9,5.9,3.9,5.9c1.2,1.8,1.8,4.3,2.2,6.3c0.9,3.8,1.3,7.8-0.4,11.4c-1.4,3.1-3,6.1-3.3,9.5L64.5,406.1z
				"/>
			<path class="st5" d="M46.3,355.2c0.2,0.6,0.6,1.1,1.1,1.6c2.1,2.1,5,3.5,8,3.5c7.9-3.4,5.3-18.6,5.3-18.6
				c-1.2-7.2-7.4-7.2-7.4-7.2c-4.7-0.2-8.9,2-9.7,6.9c-0.3,1.9,0.1,3.9,0.2,5.8c0.1,1.4,0.2,2.8,0.7,4.1
				C45,352.6,45.7,353.8,46.3,355.2z"/>
			<path class="st12" d="M55.8,359.3c-3,0.7-6.2-1.5-8.8-3c0.1,0.1,0.2,0.3,0.4,0.4c2.1,2.1,5,3.5,8,3.5c0.9-0.4,1.6-0.9,2.3-1.6
				C57.1,359,56.4,359.2,55.8,359.3z"/>
			<path class="st13" d="M61.1,348.8c0.1-2.4-0.1-4.3-1.5-6.2c-1.4-1.8-3.5-2-3.9-4.6c-0.4-2.2-3.2-5.3-0.4-4.9
				c4.6,0.6,6.9,5.7,7,8.1c0.1,2.2,0.1,4.8-0.9,6.7L61.1,348.8z"/>
			<path class="st13" d="M49.4,344c-3.5,2.1-4.4,7-3.3,10.8c-2.6-2-3.8-3.8-4.6-6.4c-0.8-2.7-0.8-4.2-0.6-7c0.7-7,7.9-10.8,15.6-7.6
				c2.9,1.2,2.3,4.8,0.1,6.8C54.6,342.4,51.6,342.6,49.4,344z"/>
			<path class="st5" d="M46.4,349.1c0,0-0.6-2.6-2.6-1.5c0,0-0.9,0.5-0.2,2.2c0,0,0.9,2.5,2.8,1.6L46.4,349.1z"/>
			<path class="st10" d="M41.7,404.6"/>
		</g>
		<g>
			<polygon class="st14" points="81,346.8 81,353.9 81,422.2 176.6,422.2 176.6,353.9 176.6,346.8 			"/>
			<g>
				<g>
					<rect x="74.6" y="339.6" class="st15" width="95.6" height="75.3"/>
					<rect x="74.6" y="339.6" class="st16" width="95.6" height="7.1"/>
					<g>
						<path class="st2" d="M157,342.9c0,1.1-0.9,2-2,2c-1.1,0-2-0.9-2-2c0-1.1,0.9-2,2-2C156.1,340.9,157,341.8,157,342.9z"/>
						<path class="st3" d="M162.5,342.9c0,1.1-0.9,2-2,2c-1.1,0-2-0.9-2-2c0-1.1,0.9-2,2-2C161.6,340.9,162.5,341.8,162.5,342.9z"/>
						<path class="st17" d="M167.8,342.9c0,1.1-0.9,2-2,2c-1.1,0-2-0.9-2-2c0-1.1,0.9-2,2-2C166.9,340.9,167.8,341.8,167.8,342.9z"
							/>
					</g>
					<rect x="81" y="352.9" class="st18" width="82.8" height="56"/>
				</g>
				<polygon class="st19" points="81,409 102.4,375.4 122.4,398.3 138.7,379 163.8,409 				"/>
				<path class="st20" d="M129.7,369.9c0,4-3.3,7.3-7.3,7.3c-4,0-7.3-3.3-7.3-7.3c0-4,3.3-7.3,7.3-7.3
					C126.4,362.6,129.7,365.9,129.7,369.9z"/>
				<path class="st15" d="M109.9,364c0,1.5-1.2,2.8-2.8,2.8H92.5c-1.5,0-2.8-1.2-2.8-2.8l0,0c0-1.5,1.2-2.8,2.8-2.8h14.6
					C108.6,361.2,109.9,362.4,109.9,364L109.9,364z"/>
				<path class="st15" d="M157,372.7c0,1.5-1.2,2.8-2.8,2.8h-14.6c-1.5,0-2.8-1.2-2.8-2.8l0,0c0-1.5,1.2-2.8,2.8-2.8h14.6
					C155.7,369.9,157,371.1,157,372.7L157,372.7z"/>
			</g>
		</g>
		<g>
			<path class="st5" d="M93.3,375.8c-0.4-1.6-1.2-1.1-2.4-0.9c-0.9,0.2-0.8,0.2-1.7,0.4c0,0,0.8-0.2,1.2-0.9c0.3-0.7-0.4-1-0.4-1
				l-1.9,1.3c-0.4,0.3-0.8,0.5-1.2,0.8c-0.4,0.3-0.8,1-1,1.5c-0.2,1,0.4,1.8,1.3,2c0.8,0.1,1.7-0.1,2.5-0.2
				C89.7,378.9,93,378.2,93.3,375.8z"/>
			<path class="st5" d="M86,376.5l-19.2,2.8c0,0-2.8,0-5.3-0.8L47,371.2c0,0-4.6-2.3-7.1,0.6c0,0-2.1,4.4,5.9,6.8l14.3,5.6
				c0,0,3.2,1,5.5,0.6l21.6-5.8L86,376.5z"/>
		</g>
		<path class="st6" d="M38.7,371.3c0,0,2.7-7.1,9.2-0.4l7.9,3.7c0,0-2.4,7.9-6.4,8.2l-9.5-5.6C40,377.2,36.8,375.4,38.7,371.3z"/>
		<path class="st0" d="M271.7,489.5c0,3.2,13.8,5.7,30.8,5.7c17,0,30.8-2.6,30.8-5.7c0-3.2-13.8-5.7-30.8-5.7
			C285.5,483.8,271.7,486.3,271.7,489.5z"/>
		<g>
			<line class="st21" x1="289" y1="489.2" x2="289" y2="289.4"/>
			<line class="st21" x1="291.3" y1="489.2" x2="291.3" y2="289.4"/>
			<line class="st21" x1="313.7" y1="489.2" x2="313.7" y2="289.4"/>
			<line class="st21" x1="316" y1="289.4" x2="316" y2="489.2"/>
			<line class="st21" x1="289" y1="296.1" x2="316" y2="296.1"/>
			<line class="st21" x1="289" y1="312.4" x2="316" y2="312.4"/>
			<line class="st21" x1="289" y1="328.7" x2="316" y2="328.7"/>
			<line class="st21" x1="289" y1="345" x2="316" y2="345"/>
			<line class="st21" x1="289" y1="361.3" x2="316" y2="361.3"/>
			<line class="st21" x1="289" y1="377.6" x2="316" y2="377.6"/>
			<line class="st21" x1="289" y1="393.9" x2="316" y2="393.9"/>
			<line class="st21" x1="289" y1="410.2" x2="316" y2="410.2"/>
			<line class="st21" x1="289" y1="426.5" x2="316" y2="426.5"/>
			<line class="st21" x1="289" y1="442.8" x2="316" y2="442.8"/>
			<line class="st21" x1="289" y1="459.1" x2="316" y2="459.1"/>
			<line class="st21" x1="289" y1="475.4" x2="316" y2="475.4"/>
		</g>
		<g>
			<g>
				<g>
					<polygon class="st5" points="249.1,280 253.2,280 253.5,276.7 250.9,276.6 					"/>
					<g>
						<g>
							<path class="st22" d="M248.4,276.6l-2-0.1c0-1.5,2.5-1.1,2.5-1.1s3.1,0.7,2.6,3.8c-0.1,1-2.8,1.5-2.8,1.5
								c-1.1,0-2.7-0.3-2.7-0.3c-0.7-0.2-0.4-1-0.4-1c-0.8-0.3-0.2-0.9-0.2-0.9c-0.7-0.5,0-0.9,0-0.9c-0.7-0.7,0.2-1.2,0.2-1.2
								L248.4,276.6z"/>
						</g>
					</g>
				</g>
				<path class="st23" d="M293.8,367l-8.9,2.3c0,0-1.1,0.3-1.1,1.9H299l-0.2-4.2H293.8z"/>
				<path class="st24" d="M252.5,281.3l19.3-1.6c0,0,3.1-0.8,7.1-4.8l11.2-9.4c0,0,3.4-11.4-1.7-14.6c0,0-3,3.3-8.8,12.2l-7.2,8
					c0,0-0.6,0.9-6.9,2.2l-13.1,2.2C252.5,275.4,251.1,279.1,252.5,281.3z"/>
				<polygon class="st25" points="290.4,283.8 285.2,330.7 293.7,367 298.9,367 295.5,330.7 307.7,283.8 				"/>
				<polygon class="st26" points="298.8,283.6 300.4,304 304,331.6 308,367 313.3,367 312.2,328.2 314.1,283.6 				"/>
				<g>
					<rect x="299.5" y="237.8" class="st5" width="6.1" height="8.2"/>
				</g>
				<path class="st5" d="M316.4,249.6c-1.7-2.6-4.4-3.4-4.4-3.4l-6.4-2.4h-6.1l-6.4,2.4c0,0-2.7,0.7-4.4,3.4H316.4z"/>
				<path class="st27" d="M305.6,243.8l6.4,2.4c0,0,4.8,1.3,5.7,6.8l-2.8,5.6l-0.8,29.6h-23.5l-0.7-28.4l-2.5-6.9
					c0.8-5.5,5.7-6.8,5.7-6.8l6.4-2.4l2.1,2.5L305.6,243.8z"/>
				<polygon class="st28" points="290.5,285.9 290.5,288.3 314.1,288.3 314.1,285.9 				"/>
				<g>
					<path class="st5" d="M294.9,237.9c1.3,3.2,2.9,3.9,2.9,3.9l2,0.1c1.1-0.3,3.1-1,3.1-1c4.4-2.1,5.9-2.3,6.5-4.7
						c0-0.1,1.6-12.7,1.6-12.7c-0.2-6.5-7.1-6.9-8.1-6.9c-1-0.1-7.6-1-8.7,5.3C294.1,221.8,292.3,229.3,294.9,237.9z"/>
					<path class="st5" d="M294.9,236.3c0.9,1.7,2.5,3.6,4.6,3.6c1.6,0,3.4-0.7,4.8-1.3c1.5-0.7,3.5-1.3,4.9-2.3
						c0.1,0,0.1-0.1,0.2-0.2c0,0,0,0,0,0c0-0.1,1.6-12.7,1.6-12.7c-0.2-6.5-7.1-6.9-8.1-6.9c-1-0.1-7.6-1-8.7,5.3
						c0,0-1.6,6.5,0.3,14.3C294.6,236,294.8,236,294.9,236.3z"/>
					<path class="st12" d="M307.8,238c-2.5,1.2-4,2-5.9,2.7c-3,1-4.6,1.2-7-2.9c0,0,0,0,0,0.1c1.3,3.2,2.9,3.9,2.9,3.9l2,0.1
						c1.1-0.3,3.1-1,3.1-1c3.4-1.7,5.1-2.1,6-3.4C308.5,237.7,308.1,237.8,307.8,238z"/>
					<path class="st29" d="M293.2,218.6c-0.6,3.1,0.4,11.4,0.4,11.4s0.3-8.3,2.5-10.1c0,0,2.2-1.1,3.8,0.3c0,0,7.5-2.9,8.5,4.7
						l1,6.6l0.1,4.6c4.7-5.8,4.4-13.9,4.4-13.9s0.8-5.2-2.9-5.9c0,0,0.3-4.4-7-5c0,0,1.1,1.4,1.5,2.3c0,0-1.3-3.1-8.4-2.3
						c0,0,1.8,0.5,2.6,1.8c0,0-1.5,0.7-6-1.9C293.5,211.2,288.6,215.8,293.2,218.6z"/>
					<path class="st5" d="M308.9,230.7c0,0,0.8-2.6,2.8-1.4c0,0,0.9,0.5,0.1,2.3c0,0-1.1,2.6-3,1.5L308.9,230.7z"/>
					<path class="st30" d="M308.3,224.9c0,0,0.6,4.4,0.1,6.8l0.9,0.1c0,0,0.1-3.1,1.6-3.3L308.3,224.9z"/>
				</g>
				<g>
					<g>
						<path class="st22" d="M320.5,298.8c0,0-0.5-19.5-6.4-36.1l6.2-0.9c0,0,5.1,15,3.5,36.5L320.5,298.8z"/>
						<g>
							<polygon class="st5" points="323.4,301.5 323.8,297.4 320.5,296.8 320.3,299.4 							"/>
							<g>
								<g>
									<path class="st22" d="M320,301.9l-0.2,2c-1.5-0.1-0.9-2.6-0.9-2.6s1-3,4-2.2c1,0.2,1.3,3,1.3,3c-0.1,1.1-0.5,2.6-0.5,2.6
										c-0.3,0.7-1,0.3-1,0.3c-0.4,0.7-0.9,0.1-0.9,0.1c-0.6,0.6-0.9-0.1-0.9-0.1c-0.8,0.6-1.1-0.3-1.1-0.3L320,301.9z"/>
								</g>
							</g>
						</g>
					</g>
					<path class="st31" d="M319.5,298.4c-3.2-32.3-11.4-42.9-11.4-42.9c-2-5.8,2.4-8,2.4-8c5.4-1.8,6.8,3.2,6.8,3.2
						c0.7,1.4,10.7,31.2,7.4,47.6C324.6,298.4,322.8,299.1,319.5,298.4z"/>
				</g>
				<path class="st31" d="M296,298.5l1.3-53.9l-4.3,1.6c0,0-4.8,1.3-5.7,6.8l2.5,6.9l-1.2,35.6L296,298.5z"/>
				<path class="st31" d="M305.6,298.9l10.3-3.5l-1.1-36.8l2.8-5.6c-0.8-5.5-5.7-6.8-5.7-6.8l-6.4-2.4V298.9z"/>
				<polygon class="st32" points="299.5,246.2 303.8,246.2 303.8,248.4 302.3,249.8 300.3,249.8 299.5,248 				"/>
				<polygon class="st33" points="301.5,246.3 305.6,242.5 309,244.6 304.5,249 				"/>
				<polygon class="st33" points="301.5,246.3 299.4,243 296,244.7 298.6,248.8 				"/>
				<rect x="296.9" y="285.4" class="st34" width="4.3" height="3.3"/>
				<path class="st35" d="M308.1,367l-8.9,2.3c0,0-1.1,0.3-1.1,1.9h15.2l-0.2-4.2H308.1z"/>
			</g>
			<polygon class="st32" points="300.3,249.8 297.3,281.6 300.3,284.9 303.8,281.6 302.3,249.8 			"/>
		</g>
		<g>
			<rect x="182" y="283.2" class="st14" width="106.8" height="75.3"/>
			<g>
				<rect x="176.6" y="277.7" class="st15" width="106.8" height="75.3"/>
				<rect x="176.6" y="277.7" class="st16" width="106.8" height="7.1"/>
				<g>
					<path class="st2" d="M270.2,281c0,1.1-0.9,2-2,2c-1.1,0-2-0.9-2-2c0-1.1,0.9-2,2-2C269.3,279,270.2,279.9,270.2,281z"/>
					<path class="st3" d="M275.7,281c0,1.1-0.9,2-2,2c-1.1,0-2-0.9-2-2c0-1.1,0.9-2,2-2C274.8,279,275.7,279.9,275.7,281z"/>
					<path class="st17" d="M281,281c0,1.1-0.9,2-2,2c-1.1,0-2-0.9-2-2c0-1.1,0.9-2,2-2C280.1,279,281,279.9,281,281z"/>
				</g>
				<rect x="183.3" y="291" class="st36" width="22" height="22"/>
				<rect x="183.3" y="320.6" class="st36" width="22" height="22"/>
				<g>
					<path class="st37" d="M201.4,332.1c0-0.2,0-0.3,0-0.5c0-0.2,0-0.3,0-0.5c-1.4-0.6-1.6-1.3-0.7-2.5c-0.1-0.3-0.3-0.6-0.5-0.8
						c-1.5,0.2-2-0.3-1.8-1.8c-0.3-0.2-0.5-0.3-0.8-0.5c-1.2,0.9-1.9,0.7-2.5-0.7c-0.2,0-0.3,0-0.5,0c-0.2,0-0.3,0-0.5,0
						c-0.6,1.4-1.3,1.6-2.5,0.7c-0.3,0.1-0.6,0.3-0.8,0.5c0.2,1.5-0.3,2-1.8,1.8c-0.2,0.3-0.3,0.5-0.5,0.8c0.9,1.2,0.7,1.9-0.7,2.5
						c0,0.2,0,0.3,0,0.5c0,0.2,0,0.3,0,0.5c1.4,0.6,1.6,1.3,0.7,2.5c0.1,0.3,0.3,0.6,0.5,0.8c1.5-0.2,2,0.3,1.8,1.8
						c0.3,0.2,0.5,0.3,0.8,0.5c1.2-0.9,1.9-0.7,2.5,0.7c0.2,0,0.3,0,0.5,0c0.2,0,0.3,0,0.5,0c0.6-1.4,1.3-1.6,2.5-0.7
						c0.3-0.1,0.6-0.3,0.8-0.5c-0.2-1.5,0.3-2,1.8-1.8c0.2-0.3,0.3-0.5,0.5-0.8C199.8,333.4,200,332.7,201.4,332.1z"/>
					<path class="st37" d="M197.8,331.6c0,1.7-1.4,3.2-3.2,3.2c-1.7,0-3.2-1.4-3.2-3.2c0-1.8,1.4-3.2,3.2-3.2
						C196.4,328.5,197.8,329.9,197.8,331.6z"/>
					<g>
						<path class="st37" d="M194.6,336.3c-2.6,0-4.7-2.1-4.7-4.7s2.1-4.7,4.7-4.7"/>
						<g>
							<g>
								<path class="st37" d="M194.6,327c0.2,0,0.5,0,0.7,0.1"/>
								<path class="st38" d="M196.8,327.5c1.5,0.8,2.6,2.4,2.6,4.2c0,2.1-1.4,3.8-3.2,4.5"/>
								<path class="st37" d="M195.4,336.3c-0.2,0-0.5,0.1-0.7,0.1"/>
							</g>
						</g>
					</g>
				</g>
				<g>
					<path class="st37" d="M199.6,308.8c0,0.7-0.5,1.2-1.2,1.2h-7.7c-0.7,0-1.2-0.5-1.2-1.2v-7.7c0-0.7,0.5-1.2,1.2-1.2h7.7
						c0.7,0,1.2,0.5,1.2,1.2V308.8z"/>
					<path class="st37" d="M190.6,304.5v-2.5c0-0.5,0.4-0.9,0.9-0.9h0.9"/>
					<g>
						<line class="st37" x1="191.7" y1="308.9" x2="192.7" y2="308.9"/>
						<line class="st37" x1="193.1" y1="308.9" x2="194.1" y2="308.9"/>
						<line class="st37" x1="194.6" y1="308.9" x2="195.6" y2="308.9"/>
						<line class="st37" x1="196.1" y1="308.9" x2="197.1" y2="308.9"/>
					</g>
					<path class="st37" d="M194.6,307.2c-1.2,0-2.2-1-2.2-2.2c0-1.2,1-2.2,2.2-2.2"/>
					<g>
						<g>
							<path class="st37" d="M194.6,302.7c0.3,0,0.5,0,0.7,0.1"/>
							<path class="st39" d="M196.6,304.1c0.1,0.3,0.2,0.6,0.2,0.9c0,0.7-0.3,1.3-0.7,1.7"/>
							<path class="st37" d="M195.3,307.1c-0.2,0.1-0.5,0.1-0.7,0.1"/>
						</g>
					</g>
					<g>
						<path class="st37" d="M198.2,299.9h-7.3v-3.2c0-1.5,1.2-2.7,2.7-2.7h1.9c1.5,0,2.7,1.2,2.7,2.7V299.9z M192.3,299.9h4.5v-3.2
							c0-0.7-0.6-1.3-1.3-1.3h-1.9c-0.7,0-1.3,0.6-1.3,1.3V299.9z"/>
					</g>
					<g>
						<g>
							<line class="st37" x1="191.7" y1="299.7" x2="191.7" y2="299"/>
							<path class="st40" d="M191.7,297.5V297c0,0-0.1-0.9,0.5-1.5"/>
							<path class="st37" d="M192.7,295c0.2-0.1,0.4-0.2,0.7-0.2"/>
						</g>
					</g>
					<path class="st41" d="M195,305.1l0.3-1.5h-1.4l0.2,1.6c-0.2,0.1-0.3,0.4-0.3,0.6c0,0.4,0.3,0.8,0.8,0.8c0.4,0,0.8-0.3,0.8-0.8
						C195.4,305.4,195.2,305.2,195,305.1z"/>
				</g>
				<g>
					<path class="st18" d="M277,292.2c0,0.7-0.6,1.3-1.3,1.3h-60.2c-0.7,0-1.3-0.6-1.3-1.3l0,0c0-0.7,0.6-1.3,1.3-1.3h60.2
						C276.4,290.9,277,291.5,277,292.2L277,292.2z"/>
					<path class="st18" d="M277,299.4c0,0.7-0.6,1.3-1.3,1.3h-60.2c-0.7,0-1.3-0.6-1.3-1.3l0,0c0-0.7,0.6-1.3,1.3-1.3h60.2
						C276.4,298.1,277,298.7,277,299.4L277,299.4z"/>
					<path class="st18" d="M277,306.6c0,0.7-0.6,1.3-1.3,1.3h-60.2c-0.7,0-1.3-0.6-1.3-1.3l0,0c0-0.7,0.6-1.3,1.3-1.3h60.2
						C276.4,305.3,277,305.9,277,306.6L277,306.6z"/>
					<path class="st18" d="M243,313.8c0,0.7-0.6,1.3-1.3,1.3h-26.2c-0.7,0-1.3-0.6-1.3-1.3l0,0c0-0.7,0.6-1.3,1.3-1.3h26.2
						C242.4,312.5,243,313.1,243,313.8L243,313.8z"/>
					<path class="st18" d="M277,320.8c0,0.7-0.6,1.3-1.3,1.3h-60.2c-0.7,0-1.3-0.6-1.3-1.3l0,0c0-0.7,0.6-1.3,1.3-1.3h60.2
						C276.4,319.5,277,320.1,277,320.8L277,320.8z"/>
					<path class="st18" d="M277,328c0,0.7-0.6,1.3-1.3,1.3h-60.2c-0.7,0-1.3-0.6-1.3-1.3l0,0c0-0.7,0.6-1.3,1.3-1.3h60.2
						C276.4,326.7,277,327.3,277,328L277,328z"/>
					<path class="st18" d="M277,335.2c0,0.7-0.6,1.3-1.3,1.3h-60.2c-0.7,0-1.3-0.6-1.3-1.3l0,0c0-0.7,0.6-1.3,1.3-1.3h60.2
						C276.4,333.9,277,334.5,277,335.2L277,335.2z"/>
					<path class="st18" d="M259.7,342.4c0,0.7-0.6,1.3-1.3,1.3h-42.9c-0.7,0-1.3-0.6-1.3-1.3l0,0c0-0.7,0.6-1.3,1.3-1.3h42.9
						C259.1,341.1,259.7,341.7,259.7,342.4L259.7,342.4z"/>
				</g>
			</g>
		</g>
	</g>
</g>
</svg>
